ISO-10303-21;
HEADER;
/* Generated by software containing ST-Developer
 * from STEP Tools, Inc. (www.steptools.com) 
 */

FILE_DESCRIPTION(
/* description */ (''),
/* implementation_level */ '2;1');

FILE_NAME(
/* name */ 'Enclosure_tapa.step',
/* time_stamp */ '2026-07-17T19:26:57-05:00',
/* author */ (''),
/* organization */ (''),
/* preprocessor_version */ 'ST-DEVELOPER v20.1',
/* originating_system */ 'Autodesk Translation Framework v15.8.0.0',
/* authorisation */ '');

FILE_SCHEMA (('AUTOMOTIVE_DESIGN { 1 0 10303 214 3 1 1 }'));
ENDSEC;

DATA;
#10=MECHANICAL_DESIGN_GEOMETRIC_PRESENTATION_REPRESENTATION('',(#13),#745);
#11=SHAPE_REPRESENTATION_RELATIONSHIP('SRR','None',#752,#12);
#12=ADVANCED_BREP_SHAPE_REPRESENTATION('',(#14),#744);
#13=STYLED_ITEM('',(#761),#14);
#14=MANIFOLD_SOLID_BREP('Cuerpo4',#465);
#15=FACE_BOUND('',#54,.T.);
#16=FACE_BOUND('',#62,.T.);
#17=FACE_BOUND('',#66,.T.);
#18=FACE_BOUND('',#72,.T.);
#19=FACE_BOUND('',#74,.T.);
#20=FACE_OUTER_BOUND('',#45,.T.);
#21=FACE_OUTER_BOUND('',#46,.T.);
#22=FACE_OUTER_BOUND('',#47,.T.);
#23=FACE_OUTER_BOUND('',#48,.T.);
#24=FACE_OUTER_BOUND('',#49,.T.);
#25=FACE_OUTER_BOUND('',#50,.T.);
#26=FACE_OUTER_BOUND('',#51,.T.);
#27=FACE_OUTER_BOUND('',#52,.T.);
#28=FACE_OUTER_BOUND('',#53,.T.);
#29=FACE_OUTER_BOUND('',#55,.T.);
#30=FACE_OUTER_BOUND('',#56,.T.);
#31=FACE_OUTER_BOUND('',#57,.T.);
#32=FACE_OUTER_BOUND('',#58,.T.);
#33=FACE_OUTER_BOUND('',#59,.T.);
#34=FACE_OUTER_BOUND('',#60,.T.);
#35=FACE_OUTER_BOUND('',#61,.T.);
#36=FACE_OUTER_BOUND('',#63,.T.);
#37=FACE_OUTER_BOUND('',#64,.T.);
#38=FACE_OUTER_BOUND('',#65,.T.);
#39=FACE_OUTER_BOUND('',#67,.T.);
#40=FACE_OUTER_BOUND('',#68,.T.);
#41=FACE_OUTER_BOUND('',#69,.T.);
#42=FACE_OUTER_BOUND('',#70,.T.);
#43=FACE_OUTER_BOUND('',#71,.T.);
#44=FACE_OUTER_BOUND('',#73,.T.);
#45=EDGE_LOOP('',(#295,#296,#297,#298));
#46=EDGE_LOOP('',(#299,#300,#301,#302));
#47=EDGE_LOOP('',(#303,#304,#305,#306));
#48=EDGE_LOOP('',(#307,#308,#309,#310));
#49=EDGE_LOOP('',(#311,#312,#313,#314));
#50=EDGE_LOOP('',(#315,#316,#317,#318));
#51=EDGE_LOOP('',(#319,#320,#321,#322));
#52=EDGE_LOOP('',(#323,#324,#325,#326));
#53=EDGE_LOOP('',(#327,#328,#329,#330));
#54=EDGE_LOOP('',(#331,#332,#333,#334));
#55=EDGE_LOOP('',(#335,#336,#337,#338));
#56=EDGE_LOOP('',(#339,#340,#341,#342));
#57=EDGE_LOOP('',(#343,#344,#345,#346));
#58=EDGE_LOOP('',(#347,#348,#349,#350));
#59=EDGE_LOOP('',(#351,#352,#353,#354));
#60=EDGE_LOOP('',(#355,#356,#357,#358));
#61=EDGE_LOOP('',(#359,#360,#361,#362));
#62=EDGE_LOOP('',(#363,#364,#365,#366));
#63=EDGE_LOOP('',(#367,#368,#369,#370));
#64=EDGE_LOOP('',(#371,#372,#373,#374));
#65=EDGE_LOOP('',(#375,#376,#377,#378));
#66=EDGE_LOOP('',(#379,#380,#381,#382));
#67=EDGE_LOOP('',(#383,#384,#385,#386));
#68=EDGE_LOOP('',(#387,#388,#389,#390));
#69=EDGE_LOOP('',(#391,#392,#393,#394));
#70=EDGE_LOOP('',(#395,#396,#397,#398));
#71=EDGE_LOOP('',(#399,#400,#401,#402));
#72=EDGE_LOOP('',(#403,#404,#405,#406));
#73=EDGE_LOOP('',(#407,#408,#409,#410));
#74=EDGE_LOOP('',(#411,#412,#413,#414));
#75=LINE('',#620,#135);
#76=LINE('',#622,#136);
#77=LINE('',#624,#137);
#78=LINE('',#625,#138);
#79=LINE('',#628,#139);
#80=LINE('',#630,#140);
#81=LINE('',#631,#141);
#82=LINE('',#634,#142);
#83=LINE('',#636,#143);
#84=LINE('',#637,#144);
#85=LINE('',#639,#145);
#86=LINE('',#640,#146);
#87=LINE('',#644,#147);
#88=LINE('',#646,#148);
#89=LINE('',#648,#149);
#90=LINE('',#649,#150);
#91=LINE('',#652,#151);
#92=LINE('',#654,#152);
#93=LINE('',#655,#153);
#94=LINE('',#658,#154);
#95=LINE('',#660,#155);
#96=LINE('',#661,#156);
#97=LINE('',#665,#157);
#98=LINE('',#667,#158);
#99=LINE('',#669,#159);
#100=LINE('',#670,#160);
#101=LINE('',#672,#161);
#102=LINE('',#675,#162);
#103=LINE('',#677,#163);
#104=LINE('',#679,#164);
#105=LINE('',#680,#165);
#106=LINE('',#684,#166);
#107=LINE('',#685,#167);
#108=LINE('',#686,#168);
#109=LINE('',#690,#169);
#110=LINE('',#692,#170);
#111=LINE('',#694,#171);
#112=LINE('',#695,#172);
#113=LINE('',#698,#173);
#114=LINE('',#699,#174);
#115=LINE('',#702,#175);
#116=LINE('',#704,#176);
#117=LINE('',#705,#177);
#118=LINE('',#708,#178);
#119=LINE('',#709,#179);
#120=LINE('',#712,#180);
#121=LINE('',#714,#181);
#122=LINE('',#715,#182);
#123=LINE('',#717,#183);
#124=LINE('',#720,#184);
#125=LINE('',#721,#185);
#126=LINE('',#722,#186);
#127=LINE('',#724,#187);
#128=LINE('',#726,#188);
#129=LINE('',#729,#189);
#130=LINE('',#732,#190);
#131=LINE('',#733,#191);
#132=LINE('',#736,#192);
#133=LINE('',#737,#193);
#134=LINE('',#739,#194);
#135=VECTOR('',#508,10.);
#136=VECTOR('',#509,10.);
#137=VECTOR('',#510,10.);
#138=VECTOR('',#511,10.);
#139=VECTOR('',#514,10.);
#140=VECTOR('',#515,10.);
#141=VECTOR('',#516,10.);
#142=VECTOR('',#519,10.);
#143=VECTOR('',#520,10.);
#144=VECTOR('',#521,10.);
#145=VECTOR('',#524,10.);
#146=VECTOR('',#525,10.);
#147=VECTOR('',#528,10.);
#148=VECTOR('',#529,10.);
#149=VECTOR('',#530,10.);
#150=VECTOR('',#531,10.);
#151=VECTOR('',#534,10.);
#152=VECTOR('',#535,10.);
#153=VECTOR('',#536,10.);
#154=VECTOR('',#539,10.);
#155=VECTOR('',#540,10.);
#156=VECTOR('',#541,10.);
#157=VECTOR('',#544,10.);
#158=VECTOR('',#545,10.);
#159=VECTOR('',#546,10.);
#160=VECTOR('',#547,10.);
#161=VECTOR('',#550,10.);
#162=VECTOR('',#551,10.);
#163=VECTOR('',#552,10.);
#164=VECTOR('',#553,10.);
#165=VECTOR('',#554,10.);
#166=VECTOR('',#557,10.);
#167=VECTOR('',#558,10.);
#168=VECTOR('',#559,10.);
#169=VECTOR('',#562,10.);
#170=VECTOR('',#563,10.);
#171=VECTOR('',#564,10.);
#172=VECTOR('',#565,10.);
#173=VECTOR('',#568,10.);
#174=VECTOR('',#569,10.);
#175=VECTOR('',#572,10.);
#176=VECTOR('',#573,10.);
#177=VECTOR('',#574,10.);
#178=VECTOR('',#577,10.);
#179=VECTOR('',#578,10.);
#180=VECTOR('',#581,10.);
#181=VECTOR('',#582,10.);
#182=VECTOR('',#583,10.);
#183=VECTOR('',#586,10.);
#184=VECTOR('',#587,10.);
#185=VECTOR('',#588,10.);
#186=VECTOR('',#589,10.);
#187=VECTOR('',#592,10.);
#188=VECTOR('',#595,10.);
#189=VECTOR('',#600,10.);
#190=VECTOR('',#603,10.);
#191=VECTOR('',#604,10.);
#192=VECTOR('',#607,10.);
#193=VECTOR('',#608,10.);
#194=VECTOR('',#611,10.);
#195=VERTEX_POINT('',#618);
#196=VERTEX_POINT('',#619);
#197=VERTEX_POINT('',#621);
#198=VERTEX_POINT('',#623);
#199=VERTEX_POINT('',#627);
#200=VERTEX_POINT('',#629);
#201=VERTEX_POINT('',#633);
#202=VERTEX_POINT('',#635);
#203=VERTEX_POINT('',#642);
#204=VERTEX_POINT('',#643);
#205=VERTEX_POINT('',#645);
#206=VERTEX_POINT('',#647);
#207=VERTEX_POINT('',#651);
#208=VERTEX_POINT('',#653);
#209=VERTEX_POINT('',#657);
#210=VERTEX_POINT('',#659);
#211=VERTEX_POINT('',#663);
#212=VERTEX_POINT('',#664);
#213=VERTEX_POINT('',#666);
#214=VERTEX_POINT('',#668);
#215=VERTEX_POINT('',#673);
#216=VERTEX_POINT('',#674);
#217=VERTEX_POINT('',#676);
#218=VERTEX_POINT('',#678);
#219=VERTEX_POINT('',#682);
#220=VERTEX_POINT('',#683);
#221=VERTEX_POINT('',#688);
#222=VERTEX_POINT('',#689);
#223=VERTEX_POINT('',#691);
#224=VERTEX_POINT('',#693);
#225=VERTEX_POINT('',#697);
#226=VERTEX_POINT('',#701);
#227=VERTEX_POINT('',#703);
#228=VERTEX_POINT('',#707);
#229=VERTEX_POINT('',#711);
#230=VERTEX_POINT('',#713);
#231=VERTEX_POINT('',#718);
#232=VERTEX_POINT('',#719);
#233=VERTEX_POINT('',#731);
#234=VERTEX_POINT('',#735);
#235=EDGE_CURVE('',#195,#196,#75,.T.);
#236=EDGE_CURVE('',#197,#195,#76,.T.);
#237=EDGE_CURVE('',#198,#197,#77,.T.);
#238=EDGE_CURVE('',#198,#196,#78,.T.);
#239=EDGE_CURVE('',#196,#199,#79,.T.);
#240=EDGE_CURVE('',#200,#198,#80,.T.);
#241=EDGE_CURVE('',#200,#199,#81,.T.);
#242=EDGE_CURVE('',#199,#201,#82,.T.);
#243=EDGE_CURVE('',#202,#200,#83,.T.);
#244=EDGE_CURVE('',#202,#201,#84,.T.);
#245=EDGE_CURVE('',#201,#195,#85,.T.);
#246=EDGE_CURVE('',#197,#202,#86,.T.);
#247=EDGE_CURVE('',#203,#204,#87,.T.);
#248=EDGE_CURVE('',#205,#204,#88,.T.);
#249=EDGE_CURVE('',#206,#205,#89,.T.);
#250=EDGE_CURVE('',#206,#203,#90,.T.);
#251=EDGE_CURVE('',#204,#207,#91,.T.);
#252=EDGE_CURVE('',#208,#207,#92,.T.);
#253=EDGE_CURVE('',#205,#208,#93,.T.);
#254=EDGE_CURVE('',#209,#203,#94,.T.);
#255=EDGE_CURVE('',#210,#206,#95,.T.);
#256=EDGE_CURVE('',#210,#209,#96,.T.);
#257=EDGE_CURVE('',#211,#212,#97,.T.);
#258=EDGE_CURVE('',#213,#212,#98,.T.);
#259=EDGE_CURVE('',#214,#213,#99,.T.);
#260=EDGE_CURVE('',#214,#211,#100,.T.);
#261=EDGE_CURVE('',#207,#209,#101,.T.);
#262=EDGE_CURVE('',#215,#216,#102,.T.);
#263=EDGE_CURVE('',#217,#215,#103,.T.);
#264=EDGE_CURVE('',#218,#217,#104,.T.);
#265=EDGE_CURVE('',#216,#218,#105,.T.);
#266=EDGE_CURVE('',#219,#220,#106,.T.);
#267=EDGE_CURVE('',#220,#216,#107,.T.);
#268=EDGE_CURVE('',#219,#218,#108,.T.);
#269=EDGE_CURVE('',#221,#222,#109,.T.);
#270=EDGE_CURVE('',#222,#223,#110,.T.);
#271=EDGE_CURVE('',#224,#223,#111,.T.);
#272=EDGE_CURVE('',#221,#224,#112,.T.);
#273=EDGE_CURVE('',#220,#225,#113,.T.);
#274=EDGE_CURVE('',#225,#215,#114,.T.);
#275=EDGE_CURVE('',#222,#226,#115,.T.);
#276=EDGE_CURVE('',#226,#227,#116,.T.);
#277=EDGE_CURVE('',#223,#227,#117,.T.);
#278=EDGE_CURVE('',#225,#228,#118,.T.);
#279=EDGE_CURVE('',#228,#217,#119,.T.);
#280=EDGE_CURVE('',#226,#229,#120,.T.);
#281=EDGE_CURVE('',#229,#230,#121,.T.);
#282=EDGE_CURVE('',#227,#230,#122,.T.);
#283=EDGE_CURVE('',#229,#221,#123,.T.);
#284=EDGE_CURVE('',#231,#232,#124,.T.);
#285=EDGE_CURVE('',#212,#231,#125,.T.);
#286=EDGE_CURVE('',#232,#211,#126,.T.);
#287=EDGE_CURVE('',#228,#219,#127,.T.);
#288=EDGE_CURVE('',#230,#224,#128,.T.);
#289=EDGE_CURVE('',#208,#210,#129,.T.);
#290=EDGE_CURVE('',#233,#214,#130,.T.);
#291=EDGE_CURVE('',#233,#232,#131,.T.);
#292=EDGE_CURVE('',#234,#233,#132,.T.);
#293=EDGE_CURVE('',#234,#231,#133,.T.);
#294=EDGE_CURVE('',#213,#234,#134,.T.);
#295=ORIENTED_EDGE('',*,*,#235,.F.);
#296=ORIENTED_EDGE('',*,*,#236,.F.);
#297=ORIENTED_EDGE('',*,*,#237,.F.);
#298=ORIENTED_EDGE('',*,*,#238,.T.);
#299=ORIENTED_EDGE('',*,*,#239,.F.);
#300=ORIENTED_EDGE('',*,*,#238,.F.);
#301=ORIENTED_EDGE('',*,*,#240,.F.);
#302=ORIENTED_EDGE('',*,*,#241,.T.);
#303=ORIENTED_EDGE('',*,*,#242,.F.);
#304=ORIENTED_EDGE('',*,*,#241,.F.);
#305=ORIENTED_EDGE('',*,*,#243,.F.);
#306=ORIENTED_EDGE('',*,*,#244,.T.);
#307=ORIENTED_EDGE('',*,*,#245,.F.);
#308=ORIENTED_EDGE('',*,*,#244,.F.);
#309=ORIENTED_EDGE('',*,*,#246,.F.);
#310=ORIENTED_EDGE('',*,*,#236,.T.);
#311=ORIENTED_EDGE('',*,*,#247,.T.);
#312=ORIENTED_EDGE('',*,*,#248,.F.);
#313=ORIENTED_EDGE('',*,*,#249,.F.);
#314=ORIENTED_EDGE('',*,*,#250,.T.);
#315=ORIENTED_EDGE('',*,*,#251,.T.);
#316=ORIENTED_EDGE('',*,*,#252,.F.);
#317=ORIENTED_EDGE('',*,*,#253,.F.);
#318=ORIENTED_EDGE('',*,*,#248,.T.);
#319=ORIENTED_EDGE('',*,*,#254,.T.);
#320=ORIENTED_EDGE('',*,*,#250,.F.);
#321=ORIENTED_EDGE('',*,*,#255,.F.);
#322=ORIENTED_EDGE('',*,*,#256,.T.);
#323=ORIENTED_EDGE('',*,*,#257,.T.);
#324=ORIENTED_EDGE('',*,*,#258,.F.);
#325=ORIENTED_EDGE('',*,*,#259,.F.);
#326=ORIENTED_EDGE('',*,*,#260,.T.);
#327=ORIENTED_EDGE('',*,*,#254,.F.);
#328=ORIENTED_EDGE('',*,*,#261,.F.);
#329=ORIENTED_EDGE('',*,*,#251,.F.);
#330=ORIENTED_EDGE('',*,*,#247,.F.);
#331=ORIENTED_EDGE('',*,*,#262,.F.);
#332=ORIENTED_EDGE('',*,*,#263,.F.);
#333=ORIENTED_EDGE('',*,*,#264,.F.);
#334=ORIENTED_EDGE('',*,*,#265,.F.);
#335=ORIENTED_EDGE('',*,*,#266,.T.);
#336=ORIENTED_EDGE('',*,*,#267,.T.);
#337=ORIENTED_EDGE('',*,*,#265,.T.);
#338=ORIENTED_EDGE('',*,*,#268,.F.);
#339=ORIENTED_EDGE('',*,*,#269,.T.);
#340=ORIENTED_EDGE('',*,*,#270,.T.);
#341=ORIENTED_EDGE('',*,*,#271,.F.);
#342=ORIENTED_EDGE('',*,*,#272,.F.);
#343=ORIENTED_EDGE('',*,*,#273,.T.);
#344=ORIENTED_EDGE('',*,*,#274,.T.);
#345=ORIENTED_EDGE('',*,*,#262,.T.);
#346=ORIENTED_EDGE('',*,*,#267,.F.);
#347=ORIENTED_EDGE('',*,*,#275,.T.);
#348=ORIENTED_EDGE('',*,*,#276,.T.);
#349=ORIENTED_EDGE('',*,*,#277,.F.);
#350=ORIENTED_EDGE('',*,*,#270,.F.);
#351=ORIENTED_EDGE('',*,*,#278,.T.);
#352=ORIENTED_EDGE('',*,*,#279,.T.);
#353=ORIENTED_EDGE('',*,*,#263,.T.);
#354=ORIENTED_EDGE('',*,*,#274,.F.);
#355=ORIENTED_EDGE('',*,*,#280,.T.);
#356=ORIENTED_EDGE('',*,*,#281,.T.);
#357=ORIENTED_EDGE('',*,*,#282,.F.);
#358=ORIENTED_EDGE('',*,*,#276,.F.);
#359=ORIENTED_EDGE('',*,*,#275,.F.);
#360=ORIENTED_EDGE('',*,*,#269,.F.);
#361=ORIENTED_EDGE('',*,*,#283,.F.);
#362=ORIENTED_EDGE('',*,*,#280,.F.);
#363=ORIENTED_EDGE('',*,*,#284,.F.);
#364=ORIENTED_EDGE('',*,*,#285,.F.);
#365=ORIENTED_EDGE('',*,*,#257,.F.);
#366=ORIENTED_EDGE('',*,*,#286,.F.);
#367=ORIENTED_EDGE('',*,*,#264,.T.);
#368=ORIENTED_EDGE('',*,*,#279,.F.);
#369=ORIENTED_EDGE('',*,*,#287,.T.);
#370=ORIENTED_EDGE('',*,*,#268,.T.);
#371=ORIENTED_EDGE('',*,*,#283,.T.);
#372=ORIENTED_EDGE('',*,*,#272,.T.);
#373=ORIENTED_EDGE('',*,*,#288,.F.);
#374=ORIENTED_EDGE('',*,*,#281,.F.);
#375=ORIENTED_EDGE('',*,*,#287,.F.);
#376=ORIENTED_EDGE('',*,*,#278,.F.);
#377=ORIENTED_EDGE('',*,*,#273,.F.);
#378=ORIENTED_EDGE('',*,*,#266,.F.);
#379=ORIENTED_EDGE('',*,*,#288,.T.);
#380=ORIENTED_EDGE('',*,*,#271,.T.);
#381=ORIENTED_EDGE('',*,*,#277,.T.);
#382=ORIENTED_EDGE('',*,*,#282,.T.);
#383=ORIENTED_EDGE('',*,*,#261,.T.);
#384=ORIENTED_EDGE('',*,*,#256,.F.);
#385=ORIENTED_EDGE('',*,*,#289,.F.);
#386=ORIENTED_EDGE('',*,*,#252,.T.);
#387=ORIENTED_EDGE('',*,*,#286,.T.);
#388=ORIENTED_EDGE('',*,*,#260,.F.);
#389=ORIENTED_EDGE('',*,*,#290,.F.);
#390=ORIENTED_EDGE('',*,*,#291,.T.);
#391=ORIENTED_EDGE('',*,*,#284,.T.);
#392=ORIENTED_EDGE('',*,*,#291,.F.);
#393=ORIENTED_EDGE('',*,*,#292,.F.);
#394=ORIENTED_EDGE('',*,*,#293,.T.);
#395=ORIENTED_EDGE('',*,*,#285,.T.);
#396=ORIENTED_EDGE('',*,*,#293,.F.);
#397=ORIENTED_EDGE('',*,*,#294,.F.);
#398=ORIENTED_EDGE('',*,*,#258,.T.);
#399=ORIENTED_EDGE('',*,*,#292,.T.);
#400=ORIENTED_EDGE('',*,*,#290,.T.);
#401=ORIENTED_EDGE('',*,*,#259,.T.);
#402=ORIENTED_EDGE('',*,*,#294,.T.);
#403=ORIENTED_EDGE('',*,*,#242,.T.);
#404=ORIENTED_EDGE('',*,*,#245,.T.);
#405=ORIENTED_EDGE('',*,*,#235,.T.);
#406=ORIENTED_EDGE('',*,*,#239,.T.);
#407=ORIENTED_EDGE('',*,*,#249,.T.);
#408=ORIENTED_EDGE('',*,*,#253,.T.);
#409=ORIENTED_EDGE('',*,*,#289,.T.);
#410=ORIENTED_EDGE('',*,*,#255,.T.);
#411=ORIENTED_EDGE('',*,*,#243,.T.);
#412=ORIENTED_EDGE('',*,*,#240,.T.);
#413=ORIENTED_EDGE('',*,*,#237,.T.);
#414=ORIENTED_EDGE('',*,*,#246,.T.);
#415=PLANE('',#479);
#416=PLANE('',#480);
#417=PLANE('',#481);
#418=PLANE('',#482);
#419=PLANE('',#483);
#420=PLANE('',#484);
#421=PLANE('',#485);
#422=PLANE('',#486);
#423=PLANE('',#487);
#424=PLANE('',#488);
#425=PLANE('',#489);
#426=PLANE('',#490);
#427=PLANE('',#491);
#428=PLANE('',#492);
#429=PLANE('',#493);
#430=PLANE('',#494);
#431=PLANE('',#495);
#432=PLANE('',#496);
#433=PLANE('',#497);
#434=PLANE('',#498);
#435=PLANE('',#499);
#436=PLANE('',#500);
#437=PLANE('',#501);
#438=PLANE('',#502);
#439=PLANE('',#503);
#440=ADVANCED_FACE('',(#20),#415,.F.);
#441=ADVANCED_FACE('',(#21),#416,.F.);
#442=ADVANCED_FACE('',(#22),#417,.F.);
#443=ADVANCED_FACE('',(#23),#418,.F.);
#444=ADVANCED_FACE('',(#24),#419,.T.);
#445=ADVANCED_FACE('',(#25),#420,.T.);
#446=ADVANCED_FACE('',(#26),#421,.T.);
#447=ADVANCED_FACE('',(#27),#422,.T.);
#448=ADVANCED_FACE('',(#28,#15),#423,.F.);
#449=ADVANCED_FACE('',(#29),#424,.F.);
#450=ADVANCED_FACE('',(#30),#425,.F.);
#451=ADVANCED_FACE('',(#31),#426,.F.);
#452=ADVANCED_FACE('',(#32),#427,.F.);
#453=ADVANCED_FACE('',(#33),#428,.F.);
#454=ADVANCED_FACE('',(#34),#429,.F.);
#455=ADVANCED_FACE('',(#35,#16),#430,.F.);
#456=ADVANCED_FACE('',(#36),#431,.F.);
#457=ADVANCED_FACE('',(#37),#432,.F.);
#458=ADVANCED_FACE('',(#38,#17),#433,.F.);
#459=ADVANCED_FACE('',(#39),#434,.T.);
#460=ADVANCED_FACE('',(#40),#435,.T.);
#461=ADVANCED_FACE('',(#41),#436,.T.);
#462=ADVANCED_FACE('',(#42),#437,.T.);
#463=ADVANCED_FACE('',(#43,#18),#438,.T.);
#464=ADVANCED_FACE('',(#44,#19),#439,.F.);
#465=CLOSED_SHELL('',(#440,#441,#442,#443,#444,#445,#446,#447,#448,#449,
#450,#451,#452,#453,#454,#455,#456,#457,#458,#459,#460,#461,#462,#463,#464));
#466=DERIVED_UNIT_ELEMENT(#468,1.);
#467=DERIVED_UNIT_ELEMENT(#747,-3.);
#468=(
MASS_UNIT()
NAMED_UNIT(*)
SI_UNIT(.KILO.,.GRAM.)
);
#469=DERIVED_UNIT((#466,#467));
#470=MEASURE_REPRESENTATION_ITEM('density measure',
POSITIVE_RATIO_MEASURE(7850.),#469);
#471=PROPERTY_DEFINITION_REPRESENTATION(#476,#473);
#472=PROPERTY_DEFINITION_REPRESENTATION(#477,#474);
#473=REPRESENTATION('material name',(#475),#744);
#474=REPRESENTATION('density',(#470),#744);
#475=DESCRIPTIVE_REPRESENTATION_ITEM('Acero','Acero');
#476=PROPERTY_DEFINITION('material property','material name',#754);
#477=PROPERTY_DEFINITION('material property','density of part',#754);
#478=AXIS2_PLACEMENT_3D('',#616,#504,#505);
#479=AXIS2_PLACEMENT_3D('',#617,#506,#507);
#480=AXIS2_PLACEMENT_3D('',#626,#512,#513);
#481=AXIS2_PLACEMENT_3D('',#632,#517,#518);
#482=AXIS2_PLACEMENT_3D('',#638,#522,#523);
#483=AXIS2_PLACEMENT_3D('',#641,#526,#527);
#484=AXIS2_PLACEMENT_3D('',#650,#532,#533);
#485=AXIS2_PLACEMENT_3D('',#656,#537,#538);
#486=AXIS2_PLACEMENT_3D('',#662,#542,#543);
#487=AXIS2_PLACEMENT_3D('',#671,#548,#549);
#488=AXIS2_PLACEMENT_3D('',#681,#555,#556);
#489=AXIS2_PLACEMENT_3D('',#687,#560,#561);
#490=AXIS2_PLACEMENT_3D('',#696,#566,#567);
#491=AXIS2_PLACEMENT_3D('',#700,#570,#571);
#492=AXIS2_PLACEMENT_3D('',#706,#575,#576);
#493=AXIS2_PLACEMENT_3D('',#710,#579,#580);
#494=AXIS2_PLACEMENT_3D('',#716,#584,#585);
#495=AXIS2_PLACEMENT_3D('',#723,#590,#591);
#496=AXIS2_PLACEMENT_3D('',#725,#593,#594);
#497=AXIS2_PLACEMENT_3D('',#727,#596,#597);
#498=AXIS2_PLACEMENT_3D('',#728,#598,#599);
#499=AXIS2_PLACEMENT_3D('',#730,#601,#602);
#500=AXIS2_PLACEMENT_3D('',#734,#605,#606);
#501=AXIS2_PLACEMENT_3D('',#738,#609,#610);
#502=AXIS2_PLACEMENT_3D('',#740,#612,#613);
#503=AXIS2_PLACEMENT_3D('',#741,#614,#615);
#504=DIRECTION('axis',(0.,0.,1.));
#505=DIRECTION('refdir',(1.,0.,0.));
#506=DIRECTION('center_axis',(-1.,0.,0.));
#507=DIRECTION('ref_axis',(0.,0.,1.));
#508=DIRECTION('',(0.,0.,-1.));
#509=DIRECTION('',(0.,1.,0.));
#510=DIRECTION('',(0.,0.,1.));
#511=DIRECTION('',(0.,1.,0.));
#512=DIRECTION('center_axis',(0.,0.,-1.));
#513=DIRECTION('ref_axis',(-1.,0.,0.));
#514=DIRECTION('',(1.,1.22464679914735E-16,0.));
#515=DIRECTION('',(-1.,-1.22464679914735E-16,0.));
#516=DIRECTION('',(0.,1.,0.));
#517=DIRECTION('center_axis',(1.,0.,0.));
#518=DIRECTION('ref_axis',(0.,0.,-1.));
#519=DIRECTION('',(0.,0.,1.));
#520=DIRECTION('',(0.,0.,-1.));
#521=DIRECTION('',(0.,1.,0.));
#522=DIRECTION('center_axis',(0.,0.,1.));
#523=DIRECTION('ref_axis',(1.,0.,0.));
#524=DIRECTION('',(-1.,-1.22464679914735E-16,0.));
#525=DIRECTION('',(1.,1.22464679914735E-16,0.));
#526=DIRECTION('center_axis',(0.,0.,-1.));
#527=DIRECTION('ref_axis',(-1.,-1.22464679914735E-16,0.));
#528=DIRECTION('',(1.,0.,0.));
#529=DIRECTION('',(-1.22464679914735E-16,1.,0.));
#530=DIRECTION('',(1.,1.22464679914735E-16,0.));
#531=DIRECTION('',(-1.22464679914735E-16,1.,0.));
#532=DIRECTION('center_axis',(1.,1.22464679914735E-16,0.));
#533=DIRECTION('ref_axis',(0.,0.,-1.));
#534=DIRECTION('',(0.,0.,1.));
#535=DIRECTION('',(-1.22464679914735E-16,1.,0.));
#536=DIRECTION('',(0.,0.,1.));
#537=DIRECTION('center_axis',(-1.,-1.22464679914735E-16,0.));
#538=DIRECTION('ref_axis',(0.,0.,1.));
#539=DIRECTION('',(0.,0.,-1.));
#540=DIRECTION('',(0.,0.,-1.));
#541=DIRECTION('',(-1.22464679914735E-16,1.,0.));
#542=DIRECTION('center_axis',(0.,0.,-1.));
#543=DIRECTION('ref_axis',(-1.,-1.22464679914735E-16,0.));
#544=DIRECTION('',(1.,0.,0.));
#545=DIRECTION('',(-1.22464679914735E-16,1.,0.));
#546=DIRECTION('',(1.,1.22464679914735E-16,0.));
#547=DIRECTION('',(-1.22464679914735E-16,1.,0.));
#548=DIRECTION('center_axis',(0.,-1.,0.));
#549=DIRECTION('ref_axis',(0.,0.,-1.));
#550=DIRECTION('',(-1.,0.,0.));
#551=DIRECTION('',(-1.,0.,0.));
#552=DIRECTION('',(0.,0.,-1.));
#553=DIRECTION('',(1.,0.,0.));
#554=DIRECTION('',(0.,0.,1.));
#555=DIRECTION('center_axis',(-1.,0.,0.));
#556=DIRECTION('ref_axis',(0.,-1.,0.));
#557=DIRECTION('',(0.,0.,-1.));
#558=DIRECTION('',(0.,1.,0.));
#559=DIRECTION('',(0.,1.,0.));
#560=DIRECTION('center_axis',(1.,0.,0.));
#561=DIRECTION('ref_axis',(0.,1.,0.));
#562=DIRECTION('',(0.,0.,-1.));
#563=DIRECTION('',(0.,-1.,0.));
#564=DIRECTION('',(0.,0.,-1.));
#565=DIRECTION('',(0.,-1.,0.));
#566=DIRECTION('center_axis',(0.,0.,-1.));
#567=DIRECTION('ref_axis',(0.,-1.,0.));
#568=DIRECTION('',(1.,0.,0.));
#569=DIRECTION('',(0.,1.,0.));
#570=DIRECTION('center_axis',(0.,0.,1.));
#571=DIRECTION('ref_axis',(0.,1.,0.));
#572=DIRECTION('',(1.,0.,0.));
#573=DIRECTION('',(0.,-1.,0.));
#574=DIRECTION('',(1.,0.,0.));
#575=DIRECTION('center_axis',(1.,0.,0.));
#576=DIRECTION('ref_axis',(0.,-1.,0.));
#577=DIRECTION('',(0.,0.,1.));
#578=DIRECTION('',(0.,1.,0.));
#579=DIRECTION('center_axis',(-1.,0.,0.));
#580=DIRECTION('ref_axis',(0.,1.,0.));
#581=DIRECTION('',(0.,0.,1.));
#582=DIRECTION('',(0.,-1.,0.));
#583=DIRECTION('',(0.,0.,1.));
#584=DIRECTION('center_axis',(0.,-1.,0.));
#585=DIRECTION('ref_axis',(0.,0.,-1.));
#586=DIRECTION('',(-1.,0.,0.));
#587=DIRECTION('',(-1.,0.,0.));
#588=DIRECTION('',(0.,0.,-1.));
#589=DIRECTION('',(0.,0.,1.));
#590=DIRECTION('center_axis',(0.,0.,1.));
#591=DIRECTION('ref_axis',(-1.,0.,0.));
#592=DIRECTION('',(-1.,0.,0.));
#593=DIRECTION('center_axis',(0.,0.,-1.));
#594=DIRECTION('ref_axis',(1.,0.,0.));
#595=DIRECTION('',(-1.,0.,0.));
#596=DIRECTION('center_axis',(0.,-1.,0.));
#597=DIRECTION('ref_axis',(0.,0.,-1.));
#598=DIRECTION('center_axis',(0.,0.,1.));
#599=DIRECTION('ref_axis',(1.,1.22464679914735E-16,0.));
#600=DIRECTION('',(-1.,-1.22464679914735E-16,0.));
#601=DIRECTION('center_axis',(1.,1.22464679914735E-16,0.));
#602=DIRECTION('ref_axis',(0.,0.,-1.));
#603=DIRECTION('',(0.,0.,1.));
#604=DIRECTION('',(-1.22464679914735E-16,1.,0.));
#605=DIRECTION('center_axis',(0.,0.,1.));
#606=DIRECTION('ref_axis',(1.,1.22464679914735E-16,0.));
#607=DIRECTION('',(-1.,-1.22464679914735E-16,0.));
#608=DIRECTION('',(-1.22464679914735E-16,1.,0.));
#609=DIRECTION('center_axis',(-1.,-1.22464679914735E-16,0.));
#610=DIRECTION('ref_axis',(0.,0.,1.));
#611=DIRECTION('',(0.,0.,-1.));
#612=DIRECTION('center_axis',(-1.22464679914735E-16,1.,0.));
#613=DIRECTION('ref_axis',(0.,0.,-1.));
#614=DIRECTION('center_axis',(-1.22464679914735E-16,1.,0.));
#615=DIRECTION('ref_axis',(-1.,-1.22464679914735E-16,0.));
#616=CARTESIAN_POINT('',(0.,0.,0.));
#617=CARTESIAN_POINT('Origin',(-37.9304651801746,39.5,-33.5254832457384));
#618=CARTESIAN_POINT('',(-37.9304651801746,41.5,-17.6956157993857));
#619=CARTESIAN_POINT('',(-37.9304651801746,41.5,-33.5254832457384));
#620=CARTESIAN_POINT('',(-37.9304651801746,41.5,-19.4882501220724));
#621=CARTESIAN_POINT('',(-37.9304651801746,39.5,-17.6956157993857));
#622=CARTESIAN_POINT('',(-37.9304651801746,39.5,-17.6956157993857));
#623=CARTESIAN_POINT('',(-37.9304651801746,39.5,-33.5254832457384));
#624=CARTESIAN_POINT('',(-37.9304651801746,39.5,-19.4882501220724));
#625=CARTESIAN_POINT('',(-37.9304651801746,39.5,-33.5254832457384));
#626=CARTESIAN_POINT('Origin',(-26.9610271589939,39.5,-33.5254832457384));
#627=CARTESIAN_POINT('',(-26.9610271589939,41.5,-33.5254832457384));
#628=CARTESIAN_POINT('',(-13.7840730739196,41.5,-33.5254832457384));
#629=CARTESIAN_POINT('',(-26.9610271589939,39.5,-33.5254832457384));
#630=CARTESIAN_POINT('',(-13.7840730739196,39.5,-33.5254832457384));
#631=CARTESIAN_POINT('',(-26.9610271589939,39.5,-33.5254832457384));
#632=CARTESIAN_POINT('Origin',(-26.9610271589939,39.5,-17.6956157993857));
#633=CARTESIAN_POINT('',(-26.9610271589939,41.5,-17.6956157993857));
#634=CARTESIAN_POINT('',(-26.9610271589939,41.5,-11.5733163988961));
#635=CARTESIAN_POINT('',(-26.9610271589939,39.5,-17.6956157993857));
#636=CARTESIAN_POINT('',(-26.9610271589939,39.5,-11.5733163988961));
#637=CARTESIAN_POINT('',(-26.9610271589939,39.5,-17.6956157993857));
#638=CARTESIAN_POINT('Origin',(-37.9304651801746,39.5,-17.6956157993857));
#639=CARTESIAN_POINT('',(-19.26879208451,41.5,-17.6956157993857));
#640=CARTESIAN_POINT('',(-19.26879208451,39.5,-17.6956157993857));
#641=CARTESIAN_POINT('Origin',(42.9678810111546,39.5,-39.0260169984065));
#642=CARTESIAN_POINT('',(-44.1821189888454,43.5,-39.0260169984065));
#643=CARTESIAN_POINT('',(42.9678810111546,43.5,-39.0260169984065));
#644=CARTESIAN_POINT('',(1.12702311308983,43.5,-39.0260169984065));
#645=CARTESIAN_POINT('',(42.9678810111546,39.5,-39.0260169984065));
#646=CARTESIAN_POINT('',(42.9678810111546,39.5,-39.0260169984065));
#647=CARTESIAN_POINT('',(-44.1821189888454,39.5,-39.0260169984065));
#648=CARTESIAN_POINT('',(-44.1821189888454,39.5,-39.0260169984065));
#649=CARTESIAN_POINT('',(-44.1821189888454,39.5,-39.0260169984065));
#650=CARTESIAN_POINT('Origin',(42.9678810111546,39.5,28.1239830015935));
#651=CARTESIAN_POINT('',(42.9678810111546,43.5,28.1239830015935));
#652=CARTESIAN_POINT('',(42.9678810111546,43.5,-5.43800849920324));
#653=CARTESIAN_POINT('',(42.9678810111546,39.5,28.1239830015935));
#654=CARTESIAN_POINT('',(42.9678810111546,39.5,28.1239830015935));
#655=CARTESIAN_POINT('',(42.9678810111546,39.5,-39.0260169984065));
#656=CARTESIAN_POINT('Origin',(-44.1821189888454,39.5,-39.0260169984065));
#657=CARTESIAN_POINT('',(-44.1821189888454,43.5,28.1239830015935));
#658=CARTESIAN_POINT('',(-44.1821189888454,43.5,-22.2255084992032));
#659=CARTESIAN_POINT('',(-44.1821189888454,39.5,28.1239830015935));
#660=CARTESIAN_POINT('',(-44.1821189888454,39.5,28.1239830015935));
#661=CARTESIAN_POINT('',(-44.1821189888454,39.5,28.1239830015935));
#662=CARTESIAN_POINT('Origin',(39.4678810111546,39.5,24.6239830015935));
#663=CARTESIAN_POINT('',(-40.6821189888454,43.5,24.6239830015935));
#664=CARTESIAN_POINT('',(39.4678810111546,43.5,24.6239830015935));
#665=CARTESIAN_POINT('',(19.4145231130898,43.5,24.6239830015935));
#666=CARTESIAN_POINT('',(39.4678810111546,41.5,24.6239830015935));
#667=CARTESIAN_POINT('',(39.4678810111546,39.5,24.6239830015935));
#668=CARTESIAN_POINT('',(-40.6821189888454,41.5,24.6239830015935));
#669=CARTESIAN_POINT('',(39.4678810111546,41.5,24.6239830015935));
#670=CARTESIAN_POINT('',(-40.6821189888454,39.5,24.6239830015935));
#671=CARTESIAN_POINT('Origin',(-0.638834784974982,43.5,-5.425));
#672=CARTESIAN_POINT('',(-22.4104768869102,43.5,28.1239830015935));
#673=CARTESIAN_POINT('',(41.936165215025,43.5,-38.));
#674=CARTESIAN_POINT('',(-43.213834784975,43.5,-38.));
#675=CARTESIAN_POINT('',(19.398665215025,43.5,-38.));
#676=CARTESIAN_POINT('',(41.936165215025,43.5,27.15));
#677=CARTESIAN_POINT('',(41.936165215025,43.5,9.61250000000001));
#678=CARTESIAN_POINT('',(-43.213834784975,43.5,27.15));
#679=CARTESIAN_POINT('',(-20.676334784975,43.5,27.15));
#680=CARTESIAN_POINT('',(-43.213834784975,43.5,-20.4625));
#681=CARTESIAN_POINT('Origin',(-43.213834784975,43.5,-35.5));
#682=CARTESIAN_POINT('',(-43.213834784975,41.5,27.15));
#683=CARTESIAN_POINT('',(-43.213834784975,41.5,-38.));
#684=CARTESIAN_POINT('',(-43.213834784975,41.5,-35.5));
#685=CARTESIAN_POINT('',(-43.213834784975,42.5,-38.));
#686=CARTESIAN_POINT('',(-43.213834784975,42.5,27.15));
#687=CARTESIAN_POINT('Origin',(-41.713834784975,41.5,-35.5));
#688=CARTESIAN_POINT('',(-41.713834784975,43.5,25.65));
#689=CARTESIAN_POINT('',(-41.713834784975,43.5,-36.5));
#690=CARTESIAN_POINT('',(-41.713834784975,43.5,-20.4625));
#691=CARTESIAN_POINT('',(-41.713834784975,41.5,-36.5));
#692=CARTESIAN_POINT('',(-41.713834784975,43.5,-36.5));
#693=CARTESIAN_POINT('',(-41.713834784975,41.5,25.65));
#694=CARTESIAN_POINT('',(-41.713834784975,41.5,-35.5));
#695=CARTESIAN_POINT('',(-41.713834784975,43.5,25.65));
#696=CARTESIAN_POINT('Origin',(39.436165215025,43.5,-38.));
#697=CARTESIAN_POINT('',(41.936165215025,41.5,-38.));
#698=CARTESIAN_POINT('',(39.436165215025,41.5,-38.));
#699=CARTESIAN_POINT('',(41.936165215025,42.5,-38.));
#700=CARTESIAN_POINT('Origin',(39.436165215025,41.5,-36.5));
#701=CARTESIAN_POINT('',(40.436165215025,43.5,-36.5));
#702=CARTESIAN_POINT('',(19.398665215025,43.5,-36.5));
#703=CARTESIAN_POINT('',(40.436165215025,41.5,-36.5));
#704=CARTESIAN_POINT('',(40.436165215025,43.5,-36.5));
#705=CARTESIAN_POINT('',(39.436165215025,41.5,-36.5));
#706=CARTESIAN_POINT('Origin',(41.936165215025,43.5,24.65));
#707=CARTESIAN_POINT('',(41.936165215025,41.5,27.15));
#708=CARTESIAN_POINT('',(41.936165215025,41.5,24.65));
#709=CARTESIAN_POINT('',(41.936165215025,42.5,27.15));
#710=CARTESIAN_POINT('Origin',(40.436165215025,41.5,24.65));
#711=CARTESIAN_POINT('',(40.436165215025,43.5,25.65));
#712=CARTESIAN_POINT('',(40.436165215025,43.5,9.61250000000001));
#713=CARTESIAN_POINT('',(40.436165215025,41.5,25.65));
#714=CARTESIAN_POINT('',(40.436165215025,43.5,25.65));
#715=CARTESIAN_POINT('',(40.436165215025,41.5,24.65));
#716=CARTESIAN_POINT('Origin',(-0.638834784974982,43.5,-5.425));
#717=CARTESIAN_POINT('',(0.762145504665148,43.5,25.65));
#718=CARTESIAN_POINT('',(39.4678810111546,43.5,-35.5260169984065));
#719=CARTESIAN_POINT('',(-40.6821189888454,43.5,-35.5260169984065));
#720=CARTESIAN_POINT('',(-20.6604768869102,43.5,-35.5260169984065));
#721=CARTESIAN_POINT('',(39.4678810111546,43.5,-20.4755084992032));
#722=CARTESIAN_POINT('',(-40.6821189888454,43.5,9.59949150079676));
#723=CARTESIAN_POINT('Origin',(4.15985729674092,43.5,27.15));
#724=CARTESIAN_POINT('',(-40.713834784975,41.5,27.15));
#725=CARTESIAN_POINT('Origin',(2.16312579430528,43.5,25.65));
#726=CARTESIAN_POINT('',(-40.713834784975,41.5,25.65));
#727=CARTESIAN_POINT('Origin',(3.1614915455231,41.5,26.4));
#728=CARTESIAN_POINT('Origin',(-44.1821189888454,39.5,28.1239830015935));
#729=CARTESIAN_POINT('',(42.9678810111546,39.5,28.1239830015935));
#730=CARTESIAN_POINT('Origin',(-40.6821189888454,39.5,24.6239830015935));
#731=CARTESIAN_POINT('',(-40.6821189888454,41.5,-35.5260169984065));
#732=CARTESIAN_POINT('',(-40.6821189888454,41.5,24.6239830015935));
#733=CARTESIAN_POINT('',(-40.6821189888454,39.5,-35.5260169984065));
#734=CARTESIAN_POINT('Origin',(-40.6821189888454,39.5,-35.5260169984065));
#735=CARTESIAN_POINT('',(39.4678810111546,41.5,-35.5260169984065));
#736=CARTESIAN_POINT('',(-40.6821189888454,41.5,-35.5260169984065));
#737=CARTESIAN_POINT('',(39.4678810111546,39.5,-35.5260169984065));
#738=CARTESIAN_POINT('Origin',(39.4678810111546,39.5,-35.5260169984065));
#739=CARTESIAN_POINT('',(39.4678810111546,41.5,-35.5260169984065));
#740=CARTESIAN_POINT('Origin',(-0.60711898884536,41.5,-5.45101699840649));
#741=CARTESIAN_POINT('Origin',(-0.60711898884536,39.5,-5.45101699840649));
#742=UNCERTAINTY_MEASURE_WITH_UNIT(LENGTH_MEASURE(0.01),#746,
'DISTANCE_ACCURACY_VALUE',
'Maximum model space distance between geometric entities at asserted c
onnectivities');
#743=UNCERTAINTY_MEASURE_WITH_UNIT(LENGTH_MEASURE(0.01),#746,
'DISTANCE_ACCURACY_VALUE',
'Maximum model space distance between geometric entities at asserted c
onnectivities');
#744=(
GEOMETRIC_REPRESENTATION_CONTEXT(3)
GLOBAL_UNCERTAINTY_ASSIGNED_CONTEXT((#742))
GLOBAL_UNIT_ASSIGNED_CONTEXT((#746,#748,#749))
REPRESENTATION_CONTEXT('','3D')
);
#745=(
GEOMETRIC_REPRESENTATION_CONTEXT(3)
GLOBAL_UNCERTAINTY_ASSIGNED_CONTEXT((#743))
GLOBAL_UNIT_ASSIGNED_CONTEXT((#746,#748,#749))
REPRESENTATION_CONTEXT('','3D')
);
#746=(
LENGTH_UNIT()
NAMED_UNIT(*)
SI_UNIT(.MILLI.,.METRE.)
);
#747=(
LENGTH_UNIT()
NAMED_UNIT(*)
SI_UNIT($,.METRE.)
);
#748=(
NAMED_UNIT(*)
PLANE_ANGLE_UNIT()
SI_UNIT($,.RADIAN.)
);
#749=(
NAMED_UNIT(*)
SI_UNIT($,.STERADIAN.)
SOLID_ANGLE_UNIT()
);
#750=SHAPE_DEFINITION_REPRESENTATION(#751,#752);
#751=PRODUCT_DEFINITION_SHAPE('',$,#754);
#752=SHAPE_REPRESENTATION('',(#478),#744);
#753=PRODUCT_DEFINITION_CONTEXT('part definition',#758,'design');
#754=PRODUCT_DEFINITION('2026-06-26-10-12-48-777','TAPA',#755,#753);
#755=PRODUCT_DEFINITION_FORMATION('',$,#760);
#756=PRODUCT_RELATED_PRODUCT_CATEGORY('TAPA','TAPA',(#760));
#757=APPLICATION_PROTOCOL_DEFINITION('international standard',
'automotive_design',2009,#758);
#758=APPLICATION_CONTEXT(
'Core Data for Automotive Mechanical Design Process');
#759=PRODUCT_CONTEXT('part definition',#758,'mechanical');
#760=PRODUCT('2026-06-26-10-12-48-777','TAPA',$,(#759));
#761=PRESENTATION_STYLE_ASSIGNMENT((#764));
#762=PRESENTATION_STYLE_ASSIGNMENT((#765));
#763=PRESENTATION_STYLE_ASSIGNMENT((#766));
#764=SURFACE_STYLE_USAGE(.BOTH.,#767);
#765=SURFACE_STYLE_USAGE(.BOTH.,#768);
#766=SURFACE_STYLE_USAGE(.BOTH.,#769);
#767=SURFACE_SIDE_STYLE('',(#770));
#768=SURFACE_SIDE_STYLE('',(#771));
#769=SURFACE_SIDE_STYLE('',(#772));
#770=SURFACE_STYLE_FILL_AREA(#773);
#771=SURFACE_STYLE_FILL_AREA(#774);
#772=SURFACE_STYLE_FILL_AREA(#775);
#773=FILL_AREA_STYLE('Acero - Satinado',(#776));
#774=FILL_AREA_STYLE('Nitruro de aluminio (AlN)',(#777));
#775=FILL_AREA_STYLE('Pintura - Esmaltado brillante (amarillo)',(#778));
#776=FILL_AREA_STYLE_COLOUR('Acero - Satinado',#779);
#777=FILL_AREA_STYLE_COLOUR('Nitruro de aluminio (AlN)',#780);
#778=FILL_AREA_STYLE_COLOUR('Pintura - Esmaltado brillante (amarillo)',
#781);
#779=COLOUR_RGB('Acero - Satinado',0.627450980392157,0.627450980392157,
0.627450980392157);
#780=COLOUR_RGB('Nitruro de aluminio (AlN)',0.850980392156863,0.827450980392157,
0.788235294117647);
#781=COLOUR_RGB('Pintura - Esmaltado brillante (amarillo)',0.909803921568627,
0.67843137254902,0.137254901960784);
ENDSEC;
END-ISO-10303-21;
